<svg class="ffr-logo" xmlns="http://www.w3.org/2000/svg" viewBox="0 0 47 80" version="1.1">
  <title>Logo France Rugby</title>
  <g stroke="none" stroke-width="1" fill="none" fill-rule="evenodd">
    <g transform="translate(-16.000000, 0.000000)">
      <g transform="translate(16.000000, 0.000000)">
        <g>
          <path
            d="M0.0417399698,30.8277858 C-0.107072097,21.3427318 4.04514751,12.0408851 12.6653587,11.7415862 C20.6231747,11.4658684 22.8535409,18.1502103 25.4123825,21.6492865 C26.4449931,23.0587121 27.5247879,24.2849306 28.8314305,24.4336731 C30.5482136,24.6295778 31.7387101,22.4855094 30.7659873,19.7718661 C30.154406,18.0649555 28.5192881,13.4884034 28.0184084,11.2935448 C27.5592688,9.28007956 27.3487541,7.19768485 28.0038902,5.59961016 C26.2635149,3.81107255 25.8787813,1.90644324 25.8551891,0.838036895 C25.8533744,0.707433743 25.8551891,0.587714186 25.8606335,0.484320024 C25.8914848,-0.0689294416 26.1655167,-0.0326507881 26.4068827,0.0816269703 C27.9675946,0.836222963 29.8767445,0.910594202 32.6533599,1.77946795 C33.0108718,1.89193178 33.1524247,1.69058525 33.2195716,1.22621849 C33.2976072,0.685666551 33.6932296,0.750968127 33.8674486,0.850734424 C35.8310419,1.95904729 37.7692284,3.63149321 37.8273014,5.03910497 C38.7201738,5.28942768 40.0576676,5.77737557 41.1592398,6.65531898 C41.2463493,6.72424842 41.2663119,6.84215405 41.1374624,6.85847944 C39.1121665,7.12331361 38.311848,8.04479141 38.012409,8.46380986 C37.9670395,8.5272975 37.9724839,8.63431953 38.0051499,8.6996211 C38.4552157,9.68095868 39.9977798,10.8509453 39.9560398,11.6690289 C39.9324477,12.1424653 39.7255626,12.4943683 39.7237478,12.4961822 C40.4424012,13.7768187 41.1283885,14.2593247 42.6528048,16.3072547 C43.2063131,17.0509671 43.6237128,17.647751 43.8850413,18.2590463 C44.1391107,18.8503883 44.244368,19.4508001 44.1772211,20.2035821 C44.1772211,20.2035821 46.9356887,23.3398717 46.9792434,27.0675034 C47.0173538,30.3307682 45.0102057,34.3377455 43.3968652,36.8972045 C41.3969762,40.0734006 40.2209979,42.5657441 39.6620452,44.3234449 C38.8199867,46.9699727 38.1285551,49.5693382 37.8563379,51.1456457 C37.6512676,52.3373994 37.6095276,53.2189707 37.7347475,53.7885456 C37.8654118,54.3744458 39.3480881,55.2269942 41.2971632,55.9471255 C41.6256386,56.0686589 41.7272664,56.7579534 41.7272664,56.767023 C40.4042908,56.4532127 36.7384326,55.5444324 35.51527,55.6677798 C35.0543155,55.7131281 34.718581,55.7893133 34.4391047,55.8836378 C33.9763354,56.039636 33.6787113,56.2391686 33.2486081,56.416934 C33.2449786,56.3969808 33.1179439,55.7548486 33.3066811,55.5045259 C33.3810872,55.4011317 33.8982998,55.0020665 34.170517,54.6519775 C34.5715837,54.1350067 34.9690208,53.3912943 35.3428658,52.402701 C35.3011258,51.5918731 34.7258401,50.8354632 34.8002462,50.2132843 C34.8673931,49.6564069 35.1813502,50.6667674 35.9272253,50.5506757 C36.4353641,48.7077202 36.7420621,46.4947223 36.8636525,45.4970593 C37.2102757,42.6927194 37.6440084,40.6411616 36.6839891,40.5577207 C33.2104977,40.2566078 31.7713762,45.5968256 31.0817593,48.3757705 C30.4356971,50.9805778 30.1616652,52.4625608 30.1907017,53.3622714 C30.2088495,53.9590552 30.3612911,54.3000746 30.6226196,54.5449555 C31.2305713,55.1127164 31.8167457,55.4355964 31.9873351,55.6333151 C32.1089255,55.7748018 32.2722558,56.3244234 32.295848,56.632792 C32.2831445,56.6237223 31.4429008,56.1520998 30.0418896,56.0305664 C29.1000181,55.9489394 27.8877442,55.9761484 26.7589502,56.1684252 C25.499492,56.3806554 23.831708,56.7543255 23.831708,56.7543255 C23.831708,56.7543255 23.8716332,56.0704729 24.0912217,55.9634508 C24.9859089,55.5244791 25.9187065,55.1217861 26.7063216,54.4941654 C27.5592688,53.8139406 27.9675946,52.9251136 28.1472579,52.5677689 C28.121851,51.7442434 27.4467523,51.0132286 27.6336748,50.302167 C27.7080808,50.0173795 28.1472579,50.9678803 28.8114679,50.7429526 C29.5627873,47.4561066 29.5918238,44.2545154 28.7370618,41.7404048 C28.1853683,40.1241907 27.6645261,39.3514554 27.0166492,38.9451345 C26.6173973,38.6929979 26.1110733,38.4825817 25.4141973,38.8635075 C24.7880977,39.2081547 23.6847107,40.4779076 23.5304543,40.6484173 C21.2746811,43.1262493 17.1805345,43.8844732 15.1062395,42.3916066 C15.1062395,42.3916066 15.1062395,42.3916066 15.1044247,42.3916066 C16.8320965,44.0604246 18.6777291,44.724324 18.6777291,44.724324 C18.6777291,44.724324 16.5399167,46.663418 13.1626087,45.9686818 C12.4094745,45.8144975 10.6890618,45.3628283 8.62747029,44.1765163 C8.93235354,44.805951 9.34612368,45.397293 9.83974419,45.8743573 C10.8015783,46.8067187 11.3623457,46.9318801 11.3623457,46.9318801 C3.23212549,46.933694 0.130664253,36.5634409 0.0417399698,30.8277858 Z M28.2507005,33.2929203 C35.8618932,34.5463478 40.3625508,29.2696176 36.4371789,24.839994 C36.7819873,26.9260166 35.7511916,28.8451574 33.7186365,30.0477947 C31.5427137,31.3320591 28.2470709,31.8218209 25.1056845,31.5805678 C23.2473484,31.4390811 21.7501538,31.3012222 19.5542685,31.5569867 C23.1003511,31.5733121 24.5195101,32.679811 28.2507005,33.2929203 Z M40.24459,20.9690617 C40.24459,20.9690617 42.2227017,21.8814698 42.8633195,23.6845189 C42.8633195,23.6845189 43.5220851,21.7018905 41.7109333,18.698018 C40.8071722,17.2015235 39.1157961,16.4251604 37.6512676,14.8089463 C38.2973297,16.8042723 40.402476,17.5280314 40.24459,20.9690617 Z M31.2342009,12.8843638 C31.5064181,14.5441122 32.0653707,15.2678713 34.5715837,17.6404953 C36.6803596,19.6376351 36.9870576,21.6656119 36.5152145,22.9535041 C37.6839336,20.1564199 37.1159071,17.7130526 35.1105738,14.9558749 C33.4554932,12.6775755 33.0725744,11.0795008 33.1215735,9.67914475 C32.3666244,9.80612003 31.7260066,9.69728407 31.357606,9.57937845 C31.3557913,9.57937845 31.3557913,9.57756452 31.3539765,9.57756452 C31.2287566,9.71360947 29.3686057,11.8087017 30.2832555,15.3857769 C30.7151735,17.0745483 31.2342009,18.3370454 31.2704965,18.4495092 L31.2704965,18.4513232 C32.5517321,21.8052847 32.1887759,23.4795445 31.4592338,24.3339068 C34.7276549,23.3181045 34.4209569,19.6866113 32.7713207,17.0455253 C31.3467173,14.7599702 31.2487192,14.0924429 31.2342009,12.8843638 Z M23.2128676,34.1690498 C23.2128676,34.1690498 24.1692573,34.7948565 25.8443005,35.8215424 C29.2724223,37.9257043 36.4807336,39.5473602 40.718248,35.3027577 C44.9720953,31.0418298 42.3914763,23.8550286 39.0795005,23.6700075 C41.4260127,24.8726448 42.6001762,33.436221 34.5008072,35.3716871 C28.4321786,36.8228333 23.2128676,34.1690498 23.2128676,34.1690498 Z M9.12834992,24.4790214 C13.3114208,22.3712317 16.7776531,23.8350753 19.5234172,25.7324489 C22.5940271,27.8547501 25.4740851,27.885587 25.4740851,27.885587 C24.2926624,28.4696733 21.4815662,28.1032589 19.5270468,27.3686162 C15.4111228,25.8158898 7.68378401,25.676217 6.92520543,33.4688718 C6.39165973,38.9632738 10.2135891,43.5833604 15.3494202,44.2545154 C10.903206,42.6437432 7.65656229,37.6264054 9.82341116,33.1478057 C11.9866305,28.6710198 17.2948658,29.2224554 21.093203,29.6596131 C23.2437189,29.9081219 24.8153195,29.8772851 25.9767795,29.6813803 C29.6244899,29.0628293 31.8094866,26.5342072 32.0817038,25.6435662 C30.6734335,26.860715 27.0547596,27.7422863 23.4941587,25.2644543 C20.7556537,23.358011 17.9028175,19.5505664 12.2933285,20.0403282 C9.60019306,20.2761394 7.19742262,21.876028 5.56593424,24.4137199 C6.36262323,21.3300343 8.43873303,17.5534265 12.3677345,16.8858993 C18.6069526,15.8265626 22.0713701,20.8094356 22.0713701,20.8094356 C22.0713701,20.8094356 19.1604609,14.4516016 12.8522811,14.8053185 C6.41888145,15.1662911 3.12868296,20.8094356 2.46265822,27.6552175 C1.73130136,35.1721545 4.56236018,38.8362985 4.56236018,38.8362985 C4.54058281,38.7836945 4.51880543,38.7310904 4.49702805,38.6784864 C4.25747692,38.0508657 4.06692489,37.4105475 3.95803801,36.7611596 C2.84739186,30.1003988 6.14303469,25.9845856 9.12834992,24.4790214 Z M25.573898,37.8386356 C22.5668054,37.2708746 21.4398262,36.668649 20.2529593,35.9122391 C19.0624627,35.1522013 17.7195246,34.7912287 16.3421056,34.8474606 C18.5488796,32.5238128 21.5632314,33.6448232 21.6358226,33.679288 C20.379994,33.0625508 19.2022009,32.3732564 17.3601979,32.574603 C15.3312724,32.7977167 14.4946582,34.3540709 14.6616181,35.6002427 C15.1334612,39.1138302 20.7738015,37.6572423 20.7738015,37.6572423 C20.7738015,37.6572423 18.7666534,40.2711193 15.6198226,39.7577763 C14.4692513,39.5709413 13.6870805,39.0322033 13.1952748,38.3429089 L13.1952748,38.3447228 C14.2115523,39.9047049 15.7341538,40.8588335 18.3764754,40.8098573 C20.9171692,40.7663229 21.9570389,39.714242 23.7355246,38.4771399 C24.279959,38.1034697 24.9859089,37.8059848 25.573898,37.8386356 Z M31.0962775,4.20650987 C32.6225086,3.34307792 35.8582637,4.06320919 36.9834281,4.85952563 C36.0705931,4.12125503 34.1668875,2.95671026 32.2178124,3.02382577 C31.2015348,3.06010442 30.3376989,3.21247477 29.4702335,3.82558401 C27.5120845,5.21142857 28.8513931,7.82167769 30.3975867,9.00980359 C30.0781852,8.70324897 29.8259306,8.29692805 29.6426377,7.7781433 C29.1435729,6.37778728 29.6444525,5.02822137 31.0962775,4.20650987 Z M33.3266437,5.97872209 C33.2685707,6.36508975 33.5843427,6.72969022 34.0344084,6.79680573 C34.4826594,6.8621073 34.8928,6.60452886 34.950873,6.21634727 C34.9708356,6.09662772 34.9472434,5.98053603 34.9018739,5.873514 C34.9018739,5.873514 35.0942407,5.91523445 35.2448676,5.97328029 L35.1033146,5.70844612 C34.6913593,5.47626274 34.2467379,5.36379892 34.0743336,5.34021779 C33.1487952,5.20417284 32.7912833,5.78825916 32.7912833,5.78825916 C33.0126866,5.74291084 33.4010498,5.72658545 33.4264567,5.72658545 C33.3756428,5.80095669 33.341162,5.88621153 33.3266437,5.97872209 Z"
            fill="currentColor" fill-rule="nonzero"/>
          <g transform="translate(28.184404, 2.902292)"/>
        </g>
        <g transform="translate(0.000000, 63.000000)" fill="currentColor" fill-rule="nonzero">
          <g>
            <path
              d="M2.39587186,4.46836364 L2.39587186,6.75625175 L0.569673069,6.75625175 C0.519195709,6.75625175 0.510181894,6.7473007 0.510181894,6.69717483 L0.510181894,1.08665734 L0.00360552576,0.42606993 L0.00360552576,0.307916084 C0.00360552576,0.25779021 0.0126193401,0.248839161 0.0630967007,0.248839161 L6.17987115,0.248839161 C6.23034851,0.248839161 6.23936232,0.25779021 6.23936232,0.307916084 L6.23936232,1.72755245 L2.39587186,1.72755245 L2.39587186,2.98965035 L5.70213898,2.98965035 C5.75261634,2.98965035 5.76163016,2.9986014 5.76163016,3.04872727 L5.76163016,4.46836364 L2.39587186,4.46836364 Z"/>
            <path
              d="M9.61773995,6.75625175 L7.79154116,6.75625175 C7.7410638,6.75625175 7.73204998,6.7473007 7.73204998,6.69717483 L7.73204998,1.08665734 L7.22547361,0.42606993 L7.22547361,0.307916084 C7.22547361,0.25779021 7.23448743,0.248839161 7.28496479,0.248839161 L10.9788259,0.248839161 C12.9943148,0.248839161 14.2256019,1.12604196 14.2256019,2.55641958 C14.2256019,3.42467133 13.7100117,4.05482517 12.7653639,4.39138462 L14.870991,6.75804196 L12.7455335,6.75804196 C12.7058728,6.75804196 12.6860424,6.74909091 12.635565,6.69896503 L10.3821114,4.17476923 L10.3821114,3.64307692 C10.3821114,3.59295105 10.3911252,3.584 10.4416026,3.584 L10.4812634,3.584 C11.7522112,3.584 12.3381091,3.28861538 12.3381091,2.65667133 C12.3381091,2.02472727 11.7522112,1.72934266 10.4812634,1.72934266 L9.61773995,1.72934266 L9.61773995,6.75625175 L9.61773995,6.75625175 Z"/>
            <path
              d="M16.8864799,6.75625175 L15.0602811,6.75625175 L18.4657002,0.247048951 L20.0539343,0.247048951 L23.4593533,6.75625175 L21.5321998,6.75625175 C21.4817225,6.75625175 21.4438644,6.73655944 21.4222313,6.69717483 L20.8958245,5.67138462 L17.5228552,5.67138462 L16.9964484,6.69717483 C16.976618,6.73655944 16.9369572,6.75625175 16.8864799,6.75625175 Z M20.1945498,4.29113287 L19.212044,2.3773986 L18.2295382,4.29113287 L20.1945498,4.29113287 Z"/>
            <path
              d="M26.1436673,2.93057343 L26.1436673,6.75625175 L24.4166204,6.75625175 C24.3661431,6.75625175 24.3571292,6.7473007 24.3571292,6.69717483 L24.3571292,1.08665734 L23.8505529,0.42606993 L23.8505529,0.307916084 C23.8505529,0.25779021 23.8595667,0.248839161 23.9100441,0.248839161 L26.0445153,0.248839161 L29.6590549,4.07451748 L29.6590549,0.248839161 L31.3861017,0.248839161 C31.4365791,0.248839161 31.4455929,0.25779021 31.4455929,0.307916084 L31.4455929,6.75804196 L29.8465422,6.75804196 C29.7762345,6.75804196 29.7365737,6.73834965 29.6969129,6.69896503 L26.1436673,2.93057343 Z"/>
            <path
              d="M32.7886512,3.50165035 C32.7886512,1.51988811 34.5553588,0.0895104895 37.0089191,0.0895104895 C37.8922729,0.0895104895 38.6981079,0.218405594 39.3723413,0.463664336 L39.3723413,1.97281119 C38.5971532,1.67742657 37.9030895,1.54853147 37.1080711,1.54853147 C35.6983105,1.54853147 34.7248186,2.34696503 34.7248186,3.50165035 C34.7248186,4.65633566 35.6983105,5.45476923 37.1080711,5.45476923 C37.9319337,5.45476923 38.6278002,5.31692308 39.4714932,4.9911049 L39.4714932,6.50025175 C38.8152875,6.77594406 37.9824111,6.91379021 37.0089191,6.91379021 C34.5553588,6.91379021 32.7886512,5.4852028 32.7886512,3.50165035 Z"/>
            <path
              d="M46.2156291,4.19267133 L42.8498708,4.19267133 L42.8498708,5.27753846 L46.6338701,5.27753846 C46.6843475,5.27753846 46.6933613,5.28648951 46.6933613,5.33661538 L46.6933613,6.75625175 L41.0236721,6.75625175 C40.9731947,6.75625175 40.9641809,6.7473007 40.9641809,6.69717483 L40.9641809,1.08665734 L40.4576045,0.42606993 L40.4576045,0.307916084 C40.4576045,0.25779021 40.4666183,0.248839161 40.5170957,0.248839161 L46.6338701,0.248839161 C46.6843475,0.248839161 46.6933613,0.25779021 46.6933613,0.307916084 L46.6933613,1.72755245 L42.8498708,1.72755245 L42.8498708,2.71395804 L46.156138,2.71395804 C46.2066153,2.71395804 46.2156291,2.7246993 46.2156291,2.77303497 L46.2156291,4.19267133 L46.2156291,4.19267133 Z"/>
          </g>
          <g transform="translate(0.000000, 8.593007)">
            <path
              d="M2.86278745,7.90735664 L0.728316203,7.90735664 C0.670627791,7.90735664 0.659811213,7.89661538 0.659811213,7.83753846 L0.659811213,1.28179021 L0.0685049894,0.51020979 L0.0685049894,0.372363636 C0.0685049894,0.315076923 0.0793215666,0.302545455 0.138812742,0.302545455 L4.45462707,0.302545455 C6.81083815,0.302545455 8.24944293,1.32833566 8.24944293,2.9986014 C8.24944293,4.01186014 7.64551737,4.74942657 6.54402925,5.14148252 L9.00299781,7.90735664 L6.52059333,7.90735664 C6.47372149,7.90735664 6.45028558,7.89661538 6.39259717,7.83753846 L3.7587606,4.88727273 L3.7587606,4.26606993 C3.7587606,4.20878322 3.76957718,4.19625175 3.82906835,4.19625175 L3.87594019,4.19625175 C5.3614168,4.19625175 6.04646669,3.85074126 6.04646669,3.11317483 C6.04646669,2.37560839 5.3614168,2.0300979 3.87594019,2.0300979 L2.86639298,2.0300979 L2.86639298,7.90735664 L2.86278745,7.90735664 Z"/>
            <path
              d="M11.8784046,0.302545455 C11.936093,0.302545455 11.9487124,0.313286713 11.9487124,0.372363636 L11.9487124,4.03692308 C11.9487124,5.59261538 12.6337622,6.38746853 13.9786234,6.38746853 C15.3234845,6.38746853 16.0085344,5.5586014 16.0085344,3.92234965 L16.0085344,0.304335664 L18.1430056,0.304335664 C18.200694,0.304335664 18.2133134,0.315076923 18.2133134,0.374153846 L18.2133134,4.15328671 C18.2133134,6.74551049 16.7620892,8.09353846 13.9786234,8.09353846 C11.1933547,8.09353846 9.74393336,6.74551049 9.74393336,4.15328671 L9.74393336,1.28358042 L9.15262713,0.512 L9.15262713,0.374153846 C9.15262713,0.316867133 9.16344371,0.304335664 9.22293488,0.304335664 L11.8784046,0.304335664 L11.8784046,0.302545455 Z"/>
            <path
              d="M24.5374055,8.09174825 C21.6710126,8.09174825 19.6068491,6.42148252 19.6068491,4.10495105 C19.6068491,1.78841958 21.6728153,0.118153846 24.5374055,0.118153846 C25.7326373,0.118153846 26.7890564,0.313286713 27.6471715,0.694601399 L27.6471715,2.45795804 C26.5673165,2.00861538 25.7434539,1.82422378 24.6527824,1.82422378 C23.0050571,1.82422378 21.8675137,2.75692308 21.8675137,4.10495105 C21.8675137,5.45297902 23.0050571,6.38567832 24.6527824,6.38567832 C25.1864002,6.38567832 25.6731461,6.33913287 26.138259,6.2353007 L26.138259,4.91054545 L25.5469527,4.13896503 L25.5469527,4.00111888 C25.5469527,3.94383217 25.5577693,3.9313007 25.6172605,3.9313007 L28.1699727,3.9313007 L28.1699727,7.46875524 C27.1009343,7.88408392 25.894886,8.09174825 24.5374055,8.09174825 Z"/>
            <path
              d="M34.052388,7.90735664 L30.0953235,7.90735664 C30.0376351,7.90735664 30.0268185,7.89661538 30.0268185,7.83753846 L30.0268185,1.28179021 L29.4355123,0.51020979 L29.4355123,0.372363636 C29.4355123,0.315076923 29.4463288,0.302545455 29.50582,0.302545455 L33.9965024,0.302545455 C35.9579084,0.302545455 37.1531402,1.05085315 37.1531402,2.27356643 C37.1531402,2.95384615 36.781771,3.49448951 36.0859045,3.84 C37.0846352,4.17476923 37.618253,4.8085035 37.618253,5.67138462 C37.6146474,7.10176224 36.3382913,7.90735664 34.052388,7.90735664 Z M32.1847257,3.20626573 L33.6467664,3.20626573 C34.5751892,3.20626573 35.0042468,2.9986014 35.0042468,2.56179021 C35.0042468,2.12318881 34.5751892,1.91552448 33.6467664,1.91552448 L32.1847257,1.91552448 L32.1847257,3.20626573 Z M32.1847257,6.29437762 L33.8198316,6.29437762 C34.9105031,6.29437762 35.4098684,6.06344056 35.4098684,5.55681119 C35.4098684,5.05018182 34.9105031,4.81924476 33.8198316,4.81924476 L32.1847257,4.81924476 L32.1847257,6.29437762 Z"/>
            <path
              d="M43.2194372,7.90735664 L41.084966,7.90735664 C41.0272776,7.90735664 41.0146582,7.89661538 41.0146582,7.83753846 L41.0146582,5.14148252 L37.6146474,0.302545455 L39.9816751,0.302545455 C40.0393635,0.302545455 40.0862354,0.336559441 40.1096713,0.372363636 L42.1756375,3.40318881 L44.2416038,0.372363636 C44.2650397,0.33834965 44.3119115,0.302545455 44.3696,0.302545455 L46.619448,0.302545455 L43.2194372,5.14148252 L43.2194372,7.90735664 L43.2194372,7.90735664 Z"/>
          </g>
        </g>
      </g>
    </g>
  </g>
</svg>
