<svg
  class="versus"
  viewBox="0 0 290 512"
  xmlns="http://www.w3.org/2000/svg"
  xml:space="preserve"
  style="clip-rule:evenodd;fill-rule:evenodd;stroke-linejoin:round;stroke-miterlimit:2;"
>
  <title>versus</title>
  <path
    d="M107.395,314.334c-0.564,0.045 -1.152,0.082 -1.764,0.112c-3.245,0.157 -7.483,0.235 -12.715,0.235c-4.186,0 -7.771,-0.026 -10.753,-0.078c-2.983,-0.053 -5.52,-0.184 -7.613,-0.393c-2.093,-0.209 -3.794,-0.523 -5.102,-0.942c-1.308,-0.418 -2.407,-0.942 -3.296,-1.569c-0.89,-0.628 -1.57,-1.387 -2.041,-2.277c-0.471,-0.889 -0.916,-2.014 -1.334,-3.375l-60.435,-180.049c-1.256,-3.767 -2.015,-6.75 -2.277,-8.948c-0.261,-2.197 0.262,-3.845 1.57,-4.944c1.308,-1.099 3.532,-1.779 6.672,-2.041c3.139,-0.262 7.534,-0.392 13.185,-0.392c4.814,-0 8.582,0.104 11.303,0.314c2.72,0.209 4.813,0.575 6.279,1.098c1.465,0.524 2.485,1.309 3.061,2.355c0.575,1.047 1.124,2.355 1.648,3.924l49.447,156.661l0.157,-0l48.505,-155.876c0.418,-1.779 0.941,-3.218 1.569,-4.317c0.628,-1.098 1.701,-1.962 3.218,-2.59c1.518,-0.627 3.689,-1.046 6.515,-1.255c2.825,-0.21 6.697,-0.314 11.616,-0.314c4.814,-0 8.555,0.157 11.224,0.471c0.005,0 0.011,0.001 0.017,0.002l37.035,-110.146l18.843,-0l-172.154,512l-18.843,0l66.463,-197.666Zm71.383,-99.539c0.409,-0.347 0.824,-0.687 1.245,-1.022c6.122,-4.866 13.343,-8.503 21.663,-10.91c8.319,-2.407 17.136,-3.61 26.45,-3.61c4.814,-0 9.628,0.366 14.442,1.098c4.813,0.733 9.313,1.727 13.499,2.983c4.186,1.256 7.901,2.669 11.146,4.238c3.244,1.57 5.389,2.878 6.435,3.925c1.047,1.046 1.753,1.936 2.12,2.668c0.366,0.733 0.68,1.701 0.941,2.904c0.262,1.204 0.445,2.721 0.55,4.552c0.105,1.832 0.157,4.108 0.157,6.829c-0,3.035 -0.079,5.599 -0.236,7.692c-0.157,2.093 -0.418,3.819 -0.785,5.18c-0.366,1.36 -0.889,2.354 -1.569,2.982c-0.68,0.628 -1.596,0.942 -2.747,0.942c-1.151,0 -2.983,-0.732 -5.494,-2.198c-2.512,-1.465 -5.599,-3.061 -9.262,-4.787c-3.663,-1.727 -7.901,-3.297 -12.715,-4.709c-4.814,-1.413 -10.098,-2.12 -15.854,-2.12c-4.5,0 -8.424,0.55 -11.773,1.649c-3.349,1.098 -6.148,2.616 -8.398,4.552c-2.25,1.936 -3.925,4.264 -5.024,6.985c-1.098,2.721 -1.648,5.599 -1.648,8.634c0,4.5 1.23,8.398 3.689,11.694c2.459,3.297 5.756,6.227 9.889,8.791c4.134,2.564 8.817,4.971 14.05,7.221c5.232,2.25 10.569,4.63 16.011,7.142c5.442,2.512 10.779,5.363 16.011,8.555c5.233,3.192 9.89,7.012 13.971,11.459c4.081,4.448 7.378,9.68 9.89,15.698c2.511,6.017 3.767,13.107 3.767,21.27c-0,10.674 -1.988,20.04 -5.965,28.098c-3.977,8.058 -9.366,14.782 -16.168,20.171c-6.803,5.39 -14.756,9.445 -23.861,12.166c-9.104,2.721 -18.836,4.081 -29.197,4.081c-7.011,0 -13.526,-0.575 -19.543,-1.727c-6.017,-1.151 -11.328,-2.537 -15.933,-4.159c-4.605,-1.622 -8.45,-3.323 -11.538,-5.102c-3.087,-1.779 -5.311,-3.349 -6.671,-4.709c-1.36,-1.361 -2.328,-3.323 -2.904,-5.887c-0.576,-2.564 -0.863,-6.253 -0.863,-11.066c-0,-3.245 0.104,-5.966 0.314,-8.163c0.209,-2.198 0.549,-3.977 1.02,-5.337c0.471,-1.361 1.099,-2.329 1.884,-2.904c0.784,-0.576 1.7,-0.864 2.747,-0.864c1.465,0 3.532,0.864 6.2,2.59c2.669,1.727 6.096,3.637 10.282,5.73c4.186,2.093 9.183,4.003 14.991,5.73c5.808,1.726 12.532,2.59 20.171,2.59c5.023,-0 9.523,-0.602 13.5,-1.806c3.977,-1.203 7.352,-2.904 10.125,-5.101c2.773,-2.198 4.892,-4.919 6.357,-8.163c1.465,-3.244 2.198,-6.854 2.198,-10.831c-0,-4.605 -1.256,-8.555 -3.767,-11.852c-2.512,-3.296 -5.782,-6.226 -9.811,-8.79c-4.029,-2.564 -8.608,-4.971 -13.736,-7.221c-5.127,-2.25 -10.412,-4.631 -15.854,-7.142c-5.442,-2.512 -10.727,-5.364 -15.854,-8.555c-5.128,-3.192 -9.707,-7.012 -13.736,-11.46c-4.029,-4.447 -7.299,-9.706 -9.811,-15.776c-1.394,-3.37 -2.402,-7.112 -3.022,-11.224l18.024,-53.604Z"
  />
</svg>
